{
    "asset" : {
        "generator" : "Khronos glTF Blender I/O v3.2.43",
        "version" : "2.0"
    },
    "scene" : 0,
    "scenes" : [
        {
            "name" : "Scene",
            "nodes" : [
                0,
                1,
                2,
                3
            ]
        }
    ],
    "nodes" : [
        {
            "mesh" : 0,
            "name" : "Vinyl"
        },
        {
            "mesh" : 1,
            "name" : "Bookshelf"
        },
        {
            "mesh" : 2,
            "name" : "Wall"
        },
        {
            "mesh" : 3,
            "name" : "Backdrop"
        }
    ],
    "materials" : [
        {
            "doubleSided" : true,
            "name" : "Label",
            "pbrMetallicRoughness" : {
                "baseColorTexture" : {
                    "index" : 0
                },
                "metallicFactor" : 0,
                "roughnessFactor" : 0.5
            }
        },
        {
            "doubleSided" : true,
            "name" : "Track",
            "pbrMetallicRoughness" : {
                "baseColorFactor" : [
                    0,
                    0,
                    0,
                    1
                ],
                "metallicFactor" : 0,
                "roughnessFactor" : 0.25
            }
        },
        {
            "doubleSided" : true,
            "name" : "Material",
            "pbrMetallicRoughness" : {
                "baseColorFactor" : [
                    0.08325386047363281,
                    0.024471018463373184,
                    0.010561937466263771,
                    1
                ],
                "metallicFactor" : 0,
                "roughnessFactor" : 0.800000011920929
            }
        },
        {
            "doubleSided" : true,
            "name" : "Wall",
            "pbrMetallicRoughness" : {
                "baseColorFactor" : [
                    0.5197123885154724,
                    0.7314695119857788,
                    0.36312854290008545,
                    1
                ],
                "metallicFactor" : 0,
                "roughnessFactor" : 0.5
            }
        },
        {
            "doubleSided" : true,
            "name" : "Backdrop",
            "pbrMetallicRoughness" : {
                "baseColorFactor" : [
                    0.20809583365917206,
                    0.28971198201179504,
                    0.14732368290424347,
                    1
                ],
                "metallicFactor" : 0,
                "roughnessFactor" : 0.5
            }
        }
    ],
    "meshes" : [
        {
            "name" : "Circle",
            "primitives" : [
                {
                    "attributes" : {
                        "POSITION" : 0,
                        "NORMAL" : 1,
                        "TEXCOORD_0" : 2
                    },
                    "indices" : 3,
                    "material" : 0
                },
                {
                    "attributes" : {
                        "POSITION" : 4,
                        "NORMAL" : 5,
                        "TEXCOORD_0" : 6
                    },
                    "indices" : 7,
                    "material" : 1
                }
            ]
        },
        {
            "name" : "Cube",
            "primitives" : [
                {
                    "attributes" : {
                        "POSITION" : 8,
                        "NORMAL" : 9,
                        "TEXCOORD_0" : 10
                    },
                    "indices" : 11,
                    "material" : 2
                }
            ]
        },
        {
            "name" : "Plane",
            "primitives" : [
                {
                    "attributes" : {
                        "POSITION" : 12,
                        "NORMAL" : 13,
                        "TEXCOORD_0" : 14
                    },
                    "indices" : 15,
                    "material" : 3
                }
            ]
        },
        {
            "name" : "Cube.001",
            "primitives" : [
                {
                    "attributes" : {
                        "POSITION" : 16,
                        "NORMAL" : 17,
                        "TEXCOORD_0" : 18
                    },
                    "indices" : 19,
                    "material" : 4
                }
            ]
        }
    ],
    "textures" : [
        {
            "sampler" : 0,
            "source" : 0
        }
    ],
    "images" : [
        {
            "bufferView" : 4,
            "mimeType" : "image/jpeg",
            "name" : "Vinyl_record_LP_10inch-3098525179"
        }
    ],
    "accessors" : [
        {
            "bufferView" : 0,
            "componentType" : 5126,
            "count" : 1060,
            "max" : [
                2.9224137776395764e-08,
                0.059792157262563705,
                0.0597921647131443
            ],
            "min" : [
                -0.001270029228180647,
                -0.0597921647131443,
                -0.0597921647131443
            ],
            "type" : "VEC3"
        },
        {
            "bufferView" : 1,
            "componentType" : 5126,
            "count" : 1060,
            "type" : "VEC3"
        },
        {
            "bufferView" : 2,
            "componentType" : 5126,
            "count" : 1060,
            "type" : "VEC2"
        },
        {
            "bufferView" : 3,
            "componentType" : 5123,
            "count" : 5472,
            "type" : "SCALAR"
        },
        {
            "bufferView" : 5,
            "componentType" : 5126,
            "count" : 960,
            "max" : [
                7.245778732567487e-08,
                0.15240000188350677,
                0.15240000188350677
            ],
            "min" : [
                -0.0012700724182650447,
                -0.15240000188350677,
                -0.15240000188350677
            ],
            "type" : "VEC3"
        },
        {
            "bufferView" : 6,
            "componentType" : 5126,
            "count" : 960,
            "type" : "VEC3"
        },
        {
            "bufferView" : 7,
            "componentType" : 5126,
            "count" : 960,
            "type" : "VEC2"
        },
        {
            "bufferView" : 8,
            "componentType" : 5123,
            "count" : 5472,
            "type" : "SCALAR"
        },
        {
            "bufferView" : 9,
            "componentType" : 5126,
            "count" : 260,
            "max" : [
                0.4572000205516815,
                0.7620000243186951,
                0.2032000720500946
            ],
            "min" : [
                -0.4572000205516815,
                -0.7620000243186951,
                -0.20320004224777222
            ],
            "type" : "VEC3"
        },
        {
            "bufferView" : 10,
            "componentType" : 5126,
            "count" : 260,
            "type" : "VEC3"
        },
        {
            "bufferView" : 11,
            "componentType" : 5126,
            "count" : 260,
            "type" : "VEC2"
        },
        {
            "bufferView" : 12,
            "componentType" : 5123,
            "count" : 444,
            "type" : "SCALAR"
        },
        {
            "bufferView" : 13,
            "componentType" : 5126,
            "count" : 272,
            "max" : [
                5.061314582824707,
                9.360629081726074,
                0.06921914964914322
            ],
            "min" : [
                -5.061314582824707,
                -0.7620000839233398,
                0
            ],
            "type" : "VEC3"
        },
        {
            "bufferView" : 14,
            "componentType" : 5126,
            "count" : 272,
            "type" : "VEC3"
        },
        {
            "bufferView" : 15,
            "componentType" : 5126,
            "count" : 272,
            "type" : "VEC2"
        },
        {
            "bufferView" : 16,
            "componentType" : 5123,
            "count" : 444,
            "type" : "SCALAR"
        },
        {
            "bufferView" : 17,
            "componentType" : 5126,
            "count" : 8,
            "max" : [
                8.77888011932373,
                16.792308807373047,
                8.77888011932373
            ],
            "min" : [
                -8.77888011932373,
                -0.7654513120651245,
                -8.77888011932373
            ],
            "type" : "VEC3"
        },
        {
            "bufferView" : 18,
            "componentType" : 5126,
            "count" : 8,
            "type" : "VEC3"
        },
        {
            "bufferView" : 19,
            "componentType" : 5126,
            "count" : 8,
            "type" : "VEC2"
        },
        {
            "bufferView" : 20,
            "componentType" : 5123,
            "count" : 12,
            "type" : "SCALAR"
        }
    ],
    "bufferViews" : [
        {
            "buffer" : 0,
            "byteLength" : 12720,
            "byteOffset" : 0
        },
        {
            "buffer" : 0,
            "byteLength" : 12720,
            "byteOffset" : 12720
        },
        {
            "buffer" : 0,
            "byteLength" : 8480,
            "byteOffset" : 25440
        },
        {
            "buffer" : 0,
            "byteLength" : 10944,
            "byteOffset" : 33920
        },
        {
            "buffer" : 0,
            "byteLength" : 536508,
            "byteOffset" : 44864
        },
        {
            "buffer" : 0,
            "byteLength" : 11520,
            "byteOffset" : 581372
        },
        {
            "buffer" : 0,
            "byteLength" : 11520,
            "byteOffset" : 592892
        },
        {
            "buffer" : 0,
            "byteLength" : 7680,
            "byteOffset" : 604412
        },
        {
            "buffer" : 0,
            "byteLength" : 10944,
            "byteOffset" : 612092
        },
        {
            "buffer" : 0,
            "byteLength" : 3120,
            "byteOffset" : 623036
        },
        {
            "buffer" : 0,
            "byteLength" : 3120,
            "byteOffset" : 626156
        },
        {
            "buffer" : 0,
            "byteLength" : 2080,
            "byteOffset" : 629276
        },
        {
            "buffer" : 0,
            "byteLength" : 888,
            "byteOffset" : 631356
        },
        {
            "buffer" : 0,
            "byteLength" : 3264,
            "byteOffset" : 632244
        },
        {
            "buffer" : 0,
            "byteLength" : 3264,
            "byteOffset" : 635508
        },
        {
            "buffer" : 0,
            "byteLength" : 2176,
            "byteOffset" : 638772
        },
        {
            "buffer" : 0,
            "byteLength" : 888,
            "byteOffset" : 640948
        },
        {
            "buffer" : 0,
            "byteLength" : 96,
            "byteOffset" : 641836
        },
        {
            "buffer" : 0,
            "byteLength" : 96,
            "byteOffset" : 641932
        },
        {
            "buffer" : 0,
            "byteLength" : 64,
            "byteOffset" : 642028
        },
        {
            "buffer" : 0,
            "byteLength" : 24,
            "byteOffset" : 642092
        }
    ],
    "samplers" : [
        {
            "magFilter" : 9729,
            "minFilter" : 9987
        }
    ],
    "buffers" : [
        {
            "byteLength" : 642116,
            "uri" : "data:application/octet-stream;base64,"
        }
    ]
}
